<svg width="1653" height="986" xmlns="http://www.w3.org/2000/svg" xmlns:xlink="http://www.w3.org/1999/xlink" xml:space="preserve" overflow="hidden"><defs><clipPath id="clip0"><rect x="2370" y="794" width="1653" height="986"/></clipPath></defs><g clip-path="url(#clip0)" transform="translate(-2370 -794)"><g>
<path d="M3031.6 1231.5 3031.6 1615.55 3064.6 1615.55 3064.6 1670.55 3097.5 1724.5 3031.6 1724.5 2998.6 1724.5 2949.5 1724.5 2998.6 1615.55 3031.6 1231.5" stroke="#5B9BD5" stroke-width="6.875" stroke-linecap="round" stroke-linejoin="round" stroke-miterlimit="10" fill="none"/></g><g>
<path d="M3031.5 1231.5 2734.59 957.532 2668.59 957.532 2618.5 957.532 2618.5 903.53 2701.59 903.53 2701.59 848.5 2734.59 848.5 2783.59 848.5 3031.5 1231.5" stroke="#C31432" stroke-width="6.875" stroke-linecap="round" stroke-linejoin="round" stroke-miterlimit="10" fill="none"/></g><g>
<path d="M3031.5 1231.5 2536.58 1341.54 2503.58 1341.54 2536.58 1396.5 2453.58 1396.5 2403.58 1341.54 2370.5 1341.54 2370.5 1286.54 2453.58 1286.54 2503.58 1286.54 3031.5 1231.5" stroke="#FF4B2B" stroke-width="6.875" stroke-linecap="round" stroke-linejoin="round" stroke-miterlimit="10" fill="none"/></g><g>
<path d="M3031.5 1231.5 3329.61 957.532 3362.61 903.53 3395.61 903.53 3444.61 881.529 3477.5 848.5 3444.61 848.5 3362.61 848.5 3279.61 848.5 3279.61 903.53 3031.5 1231.5" stroke="#6BE585" stroke-width="6.875" stroke-linecap="round" stroke-linejoin="round" stroke-miterlimit="10" fill="none"/></g><g>
<path d="M3031.5 1231.5 3147.6 1341.54 3163.6 1341.54 3196.6 1341.54 3196.6 1396.55 3246.5 1396.55 3246.5 1451.5 3196.6 1451.5 3163.6 1451.5 3114.6 1451.5 3147.6 1396.55 3031.5 1231.5" stroke="#F2727F" stroke-width="6.875" stroke-linecap="round" stroke-linejoin="round" stroke-miterlimit="10" fill="none"/></g><g>
<path d="M3031.5 1231.5 3775.62 1396.55 3824.63 1396.55 3857.63 1396.55 3940.5 1396.55 3940.5 1450.55 3890.63 1450.55 3824.63 1450.55 3808.62 1450.55 3775.62 1505.5 3114.6 1396.55 3031.5 1231.5" stroke="#70AD47" stroke-width="6.875" stroke-linecap="round" stroke-linejoin="round" stroke-miterlimit="10" fill="none"/></g><g>
<path d="M3031.6 1231.5 3064.6 1067.54 3064.6 1056.53 3031.6 1056.53 2998.6 1034.53 2949.5 1056.53 2949.5 1023.53 2998.6 1012.5 3031.6 1023.53 3064.6 1034.53 3114.5 1012.5 3114.5 1034.53 3031.6 1231.5" stroke="#78FFDB" stroke-width="6.875" stroke-linecap="round" stroke-linejoin="round" stroke-miterlimit="10" fill="none"/></g><g>
<path d="M3031.5 1231.5 2866.59 1231.5 2783.59 1231.5 2783.59 1209.54 2750.59 1209.54 2701.5 1231.5 2701.5 1177.5 2750.59 1177.5 2783.59 1177.5 2833.59 1177.5 2833.59 1209.54 2866.59 1209.54 3031.5 1231.5" stroke="#ED7D31" stroke-width="6.875" stroke-linecap="round" stroke-linejoin="round" stroke-miterlimit="10" fill="none"/></g><g>
<path d="M3031.5 1231.5 3362.61 1177.54 3444.61 1177.54 3461.61 1177.54 3560.62 1177.54 3610.5 1177.54 3527.62 1144.54 3494.61 1122.54 3444.61 1122.54 3411.61 1144.54 3362.61 1122.54 3114.6 1067.5 3031.5 1231.5" stroke="#FFC000" stroke-width="6.875" stroke-linecap="round" stroke-linejoin="round" stroke-miterlimit="10" fill="none"/></g><g>
<path d="M3031.5 1231.5 2916.6 1396.55 2916.6 1429.55 2949.6 1429.55 2949.6 1451.5 2899.6 1451.5 2866.59 1429.55 2866.59 1451.5 2833.59 1451.5 2783.5 1451.5 2800.59 1429.55 2783.5 1396.55 2833.59 1396.55 2866.59 1396.55 3031.5 1231.5" stroke="#8360C3" stroke-width="6.875" stroke-linecap="round" stroke-linejoin="round" stroke-miterlimit="10" fill="none"/></g></g></svg>