<svg width="1654" height="986" fill="none" xmlns="http://www.w3.org/2000/svg">
<g clip-path="url(#clip0_622_299)">
<mask id="mask0_622_299" style="mask-type:luminance" maskUnits="userSpaceOnUse" x="0" y="0" width="1654" height="986">
<path d="M1653.5 0H0.5V986H1653.5V0Z" fill="white"/>
</mask>
<g mask="url(#mask0_622_299)">
<path d="M703.1 438V822.05H736.1V877.05L769 931H703.1H670.1H621L670.1 822.05L703.1 438Z" stroke="#5B9BD5" stroke-width="6.875" stroke-miterlimit="10" stroke-linecap="round" stroke-linejoin="round"/>
<path d="M703 438L406.09 164.032H340.09H290V110.03H373.09V55H406.09H455.09L703 438Z" stroke="#C31432" stroke-width="6.875" stroke-miterlimit="10" stroke-linecap="round" stroke-linejoin="round"/>
<path d="M703 438L208.08 548.04H175.08L208.08 603H125.08L75.0801 548.04H42V493.04H125.08H175.08L703 438Z" stroke="#FF4B2B" stroke-width="6.875" stroke-miterlimit="10" stroke-linecap="round" stroke-linejoin="round"/>
<path d="M703 438L1001.11 164.032L1034.11 110.03H1067.11L1116.11 88.029L1149 55H1116.11H1034.11H951.11V110.03L703 438Z" stroke="#6BE585" stroke-width="6.875" stroke-miterlimit="10" stroke-linecap="round" stroke-linejoin="round"/>
<path d="M703 438L819.1 548.04H835.1H868.1V603.05H918V658H868.1H835.1H786.1L819.1 603.05L703 438Z" stroke="#F2727F" stroke-width="6.875" stroke-miterlimit="10" stroke-linecap="round" stroke-linejoin="round"/>
<path d="M703 438L1447.12 603.05H1496.13H1529.13H1612V657.05H1562.13H1496.13H1480.12L1447.12 712L786.1 603.05L703 438Z" stroke="#70AD47" stroke-width="6.875" stroke-miterlimit="10" stroke-linecap="round" stroke-linejoin="round"/>
<path d="M703.1 438L736.1 274.04V263.03H703.1L670.1 241.03L621 263.03V230.03L670.1 219L703.1 230.03L736.1 241.03L786 219V241.03L703.1 438Z" stroke="#78FFDB" stroke-width="6.875" stroke-miterlimit="10" stroke-linecap="round" stroke-linejoin="round"/>
<path d="M703 438H538.09H455.09V416.04H422.09L373 438V384H422.09H455.09H505.09V416.04H538.09L703 438Z" stroke="#ED7D31" stroke-width="6.875" stroke-miterlimit="10" stroke-linecap="round" stroke-linejoin="round"/>
<path d="M703 438L1034.11 384.04H1116.11H1133.11H1232.12H1282L1199.12 351.04L1166.11 329.04H1116.11L1083.11 351.04L1034.11 329.04L786.1 274L703 438Z" stroke="#FFC000" stroke-width="6.875" stroke-miterlimit="10" stroke-linecap="round" stroke-linejoin="round"/>
<path d="M703 438L588.1 603.05V636.05H621.1V658H571.1L538.09 636.05V658H505.09H455L472.09 636.05L455 603.05H505.09H538.09L703 438Z" stroke="#8360C3" stroke-width="6.875" stroke-miterlimit="10" stroke-linecap="round" stroke-linejoin="round"/>
</g>
</g>
<defs>
<clipPath id="clip0_622_299">
<rect width="1653" height="986" fill="white" transform="translate(0.5)"/>
</clipPath>
</defs>
</svg>
