<svg width="1654" height="986" fill="none" xmlns="http://www.w3.org/2000/svg">
<g clip-path="url(#clip0_622_110)">
<mask id="mask0_622_110" style="mask-type:luminance" maskUnits="userSpaceOnUse" x="0" y="0" width="1654" height="986">
<path d="M1653.5 0H0.5V986H1653.5V0Z" fill="white"/>
</mask>
<g mask="url(#mask0_622_110)">
<path d="M703.1 439L587.1 603.05L835.1 548.04H868.1L918 603.05L835.1 658L455 603.05L703.1 439Z" stroke="#F2727F" stroke-width="6.875" stroke-miterlimit="10" stroke-linecap="round" stroke-linejoin="round"/>
<path d="M703 439L1033.11 110.03H1066.11L1116.11 88L1281 384.04L1199.12 351.04L1165.11 329.04H1116.11L1083.11 351.04L703 439Z" stroke="#FFC000" stroke-width="6.875" stroke-miterlimit="10" stroke-linecap="round" stroke-linejoin="round"/>
<path d="M703.1 439L405.09 165.032H339.09H290V110.03H372.09V55H405.09H455.09L1033 329.04L703.1 439Z" stroke="#C31432" stroke-width="6.875" stroke-miterlimit="10" stroke-linecap="round" stroke-linejoin="round"/>
<path d="M703 439L1446.12 603.05H1496.13H1529.13H1612V658.05H1562.13H1496.13H1479.12L1446.12 712L703 439Z" stroke="#70AD47" stroke-width="6.875" stroke-miterlimit="10" stroke-linecap="round" stroke-linejoin="round"/>
<path d="M703.1 439V822.05H736.1V876.05L769.1 931L918 658.05H868.1H505.09H455L471.09 636.05L703.1 439Z" stroke="#5B9BD5" stroke-width="6.875" stroke-miterlimit="10" stroke-linecap="round" stroke-linejoin="round"/>
<path d="M703 439L207.08 548.04H174.08L207.08 603H124.08L75.0801 548.04H42V493.04H124.08H174.08L703 439Z" stroke="#FF4B2B" stroke-width="6.875" stroke-miterlimit="10" stroke-linecap="round" stroke-linejoin="round"/>
<path d="M703.1 439.04L1000 165L620 636.05L868.1 603.05L703.1 931H670.1H620L785.1 658.05L818.1 603.05H785.1L703.1 439.04Z" stroke="#FFFDE4" stroke-width="6.875" stroke-miterlimit="10" stroke-linecap="round" stroke-linejoin="round"/>
<path d="M703.1 439.04H538.09L587.1 636.05L620.1 658.05H571.1L538.09 636.05V658.05L670.1 822L505 417.04L786 274L538.09 603.05L703.1 439.04Z" stroke="#8360C3" stroke-width="6.875" stroke-miterlimit="10" stroke-linecap="round" stroke-linejoin="round"/>
<path d="M703.1 439L1033.11 384.04H1116.11H1132.11H1232L1149.11 55H1116.11H1033.11H951.11V110.03L538 417.04L703.1 439Z" stroke="#6BE585" stroke-width="6.875" stroke-miterlimit="10" stroke-linecap="round" stroke-linejoin="round"/>
<path d="M703.1 439L736.1 274.04V263.03H703.1L670.1 241.03L620 263.03V230.03L670.1 220L703.1 230.03L736.1 241.03L786 220L703.1 439Z" stroke="#78FFDB" stroke-width="6.875" stroke-miterlimit="10" stroke-linecap="round" stroke-linejoin="round"/>
<path d="M703.1 439.04L819 548.04L455.09 439.04V417.04H422.09L372 439.04V384.04H422.09H455.09H505.09L785.1 241L505.09 603L703.1 439.04Z" stroke="#ED7D31" stroke-width="6.875" stroke-miterlimit="10" stroke-linecap="round" stroke-linejoin="round"/>
</g>
</g>
<defs>
<clipPath id="clip0_622_110">
<rect width="1653" height="986" fill="white" transform="translate(0.5)"/>
</clipPath>
</defs>
</svg>
