<svg width="1651" height="990" fill="none" xmlns="http://www.w3.org/2000/svg">
<g clip-path="url(#clip0_622_164)">
<mask id="mask0_622_164" style="mask-type:luminance" maskUnits="userSpaceOnUse" x="0" y="0" width="1651" height="990">
<path d="M1650.5 0H0.5V990H1650.5V0Z" fill="white"/>
</mask>
<g mask="url(#mask0_622_164)">
<path d="M702 440.04L999 165L916.11 605.05L834.1 660L784.1 605.05L702 440.04Z" stroke="#F2727F" stroke-width="6.875" stroke-miterlimit="10" stroke-linecap="round" stroke-linejoin="round"/>
<path d="M702 440L1032.11 385.04H1114.11H1131.11H1230.12H1279L1197.12 352.04L1164.11 330H1114.11L1081.11 352.04L702 440Z" stroke="#FFC000" stroke-width="6.875" stroke-miterlimit="10" stroke-linecap="round" stroke-linejoin="round"/>
<path d="M702.1 440L1032.11 110.03H1065.11L1114.11 88.029L1147 55H1114.11H1032.11H949.11V110.03L537 418.04L702.1 440Z" stroke="#6BE585" stroke-width="6.875" stroke-miterlimit="10" stroke-linecap="round" stroke-linejoin="round"/>
<path d="M702.1 440L405.09 165.032H339.09H289V110.03H372.09V55H405.09H454.09L1032 330.04L702.1 440Z" stroke="#C31432" stroke-width="6.875" stroke-miterlimit="10" stroke-linecap="round" stroke-linejoin="round"/>
<path d="M702 440L207.08 550.04H174.08L207.08 605H124.08L75.0801 550.04H42V495.04H124.08H174.08L702 440Z" stroke="#FF4B2B" stroke-width="6.875" stroke-miterlimit="10" stroke-linecap="round" stroke-linejoin="round"/>
<path d="M702.1 440V825.05H735.1V880.06L768.1 935L916 660.05H867.1H504.09H454L471.09 638.05L702.1 440Z" stroke="#5B9BD5" stroke-width="6.875" stroke-miterlimit="10" stroke-linecap="round" stroke-linejoin="round"/>
<path d="M702.1 440L586 605.05L834.1 550.04H867V605.05L702.1 935H669.1H619.1L784.1 660.05L817.1 605.05L702.1 440Z" stroke="#CBDF90" stroke-width="6.875" stroke-miterlimit="10" stroke-linecap="round" stroke-linejoin="round"/>
<path d="M702 440L1444.12 605.05H1494.13H1527.13H1609V660.05H1560.13H1494.13H1477.12L1444.12 715L702 440Z" stroke="#70AD47" stroke-width="6.875" stroke-miterlimit="10" stroke-linecap="round" stroke-linejoin="round"/>
<path d="M702.1 440L735.1 275.04V264.03H702.1L669.1 242.03L619 264.03V231.03L669.1 220L702.1 231.03L735.1 242.03L784 220L702.1 440Z" stroke="#78FFDB" stroke-width="6.875" stroke-miterlimit="10" stroke-linecap="round" stroke-linejoin="round"/>
<path d="M702.1 440H537.09H454.09V418.04H421.09L372 440V385.04H421.09H454.09H504.09L784 242V275.04L702.1 440Z" stroke="#ED7D31" stroke-width="6.875" stroke-miterlimit="10" stroke-linecap="round" stroke-linejoin="round"/>
<path d="M702.1 440.04L817 550.04L586.1 638.05H619.1V660.05H570.1L537.09 638.05V660.05L669.1 825L504.09 418L454 605.05H504.09H537.09L702.1 440.04Z" stroke="#8360C3" stroke-width="6.875" stroke-miterlimit="10" stroke-linecap="round" stroke-linejoin="round"/>
</g>
</g>
<defs>
<clipPath id="clip0_622_164">
<rect width="1650" height="990" fill="white" transform="translate(0.5)"/>
</clipPath>
</defs>
</svg>
