<svg width="1653" height="994" fill="none" xmlns="http://www.w3.org/2000/svg">
<g clip-path="url(#clip0_622_218)">
<mask id="mask0_622_218" style="mask-type:luminance" maskUnits="userSpaceOnUse" x="0" y="0" width="1653" height="994">
<path d="M1652.5 0H0.5V994H1652.5V0Z" fill="white"/>
</mask>
<g mask="url(#mask0_622_218)">
<path d="M703 442L818.1 553.04H835.1H868V608L703 442Z" stroke="#F2727F" stroke-width="6.875" stroke-miterlimit="10" stroke-linecap="round" stroke-linejoin="round"/>
<path d="M703 442L405.09 166.032H339.09H290V111.03H372.09V55H405.09H455.09L703 442Z" stroke="#C31432" stroke-width="6.875" stroke-miterlimit="10" stroke-linecap="round" stroke-linejoin="round"/>
<path d="M703 442V829.05H736.1V884L918 608.05V663.05H868.1H835.1H785.1L818.1 608.05L703 442Z" stroke="#5B9BD5" stroke-width="6.875" stroke-miterlimit="10" stroke-linecap="round" stroke-linejoin="round"/>
<path d="M703 442L207.08 553.04H174.08L207.08 608H125.08L75.0801 553.04H42V497.04H125.08H174.08L703 442Z" stroke="#FF4B2B" stroke-width="6.875" stroke-miterlimit="10" stroke-linecap="round" stroke-linejoin="round"/>
<path d="M703 442L1446.12 608.05H1496.13H1529.13H1611V663.05H1562.13H1496.13H1479.12L1446.12 718L703 442Z" stroke="#70AD47" stroke-width="6.875" stroke-miterlimit="10" stroke-linecap="round" stroke-linejoin="round"/>
<path d="M703 442L1033.11 111.03H1066.11L1116.11 88.029L1149 55H1116.11H1033.11H951.11V111.03L785.1 243.03V276.04L703 442Z" stroke="#6BE585" stroke-width="6.875" stroke-miterlimit="10" stroke-linecap="round" stroke-linejoin="round"/>
<path d="M703.1 442.04L1000 166L769.1 939H703.1H670.1H620.1L670.1 829.05L505.09 420.04L455 608.05H505.09H538.09L703.1 442.04Z" stroke="#CBDF90" stroke-width="6.875" stroke-miterlimit="10" stroke-linecap="round" stroke-linejoin="round"/>
<path d="M703 442L1033.11 387.04H1116.11H1132.11H1231.12H1281L1198.12 354.04L1165.11 332H1116.11L1083.11 354.04L1033.11 332L703 442Z" stroke="#FFC000" stroke-width="6.875" stroke-miterlimit="10" stroke-linecap="round" stroke-linejoin="round"/>
<path d="M703 442H538.09H455.09V420.04H422.09L372 442V387H422.09H455.09H505.09L538.09 420.04L703 442Z" stroke="#ED7D31" stroke-width="6.875" stroke-miterlimit="10" stroke-linecap="round" stroke-linejoin="round"/>
<path d="M703.1 442L736.1 276.04V265.04H703.1L670.1 243.03L620 265.04V232.03L670.1 221L703.1 232.03L736.1 243.03L785 221L703.1 442Z" stroke="#78FFDB" stroke-width="6.875" stroke-miterlimit="10" stroke-linecap="round" stroke-linejoin="round"/>
<path d="M703.1 442L587.1 608.05V641.05H620.1V663H571.1L538.09 641.05V663H505.09H455L472.09 641.05L785 608.05L703.1 442Z" stroke="#8360C3" stroke-width="6.875" stroke-miterlimit="10" stroke-linecap="round" stroke-linejoin="round"/>
</g>
</g>
<defs>
<clipPath id="clip0_622_218">
<rect width="1652" height="994" fill="white" transform="translate(0.5)"/>
</clipPath>
</defs>
</svg>
