<svg width="1650" height="990" fill="none" xmlns="http://www.w3.org/2000/svg">
<g clip-path="url(#clip0_622_2)">
<mask id="mask0_622_2" style="mask-type:luminance" maskUnits="userSpaceOnUse" x="0" y="0" width="1650" height="990">
<path d="M1650 0H0V990H1650V0Z" fill="white"/>
</mask>
<g mask="url(#mask0_622_2)">
<path d="M701 440L404.09 165.032H338.09H288V110.03H371.09V55H404.09H453.09L701 440Z" stroke="#C31432" stroke-width="6.875" stroke-miterlimit="10" stroke-linecap="round" stroke-linejoin="round"/>
<path d="M701.1 440V825.05H734.1V880.06L767 935H701.1H668.1H618L668.1 825.05L701.1 440Z" stroke="#5B9BD5" stroke-width="6.875" stroke-miterlimit="10" stroke-linecap="round" stroke-linejoin="round"/>
<path d="M701 440L998.11 165.032L1031.11 110.03H1064.11L1113.11 88.029L1146 55H1113.11H1031.11H948.11V110.03L701 440Z" stroke="#6BE585" stroke-width="6.875" stroke-miterlimit="10" stroke-linecap="round" stroke-linejoin="round"/>
<path d="M701 440L1443.12 605.05H1493.13H1526.13H1608V660.05H1559.13H1493.13H1476.12L1443.12 715L701 440Z" stroke="#70AD47" stroke-width="6.875" stroke-miterlimit="10" stroke-linecap="round" stroke-linejoin="round"/>
<path d="M701 440L206.08 550.04H173.08L206.08 605H123.08L74.0801 550.04H41V495.04H123.08H173.08L701 440Z" stroke="#FF4B2B" stroke-width="6.875" stroke-miterlimit="10" stroke-linecap="round" stroke-linejoin="round"/>
<path d="M701 440L1031.11 385.04H1113.11H1130.11H1229.12H1278L1196.12 352.04L1163.11 330H1113.11L1080.11 352.04L1031.11 330L701 440Z" stroke="#FFC000" stroke-width="6.875" stroke-miterlimit="10" stroke-linecap="round" stroke-linejoin="round"/>
<path d="M701 440L816.1 550.04H833.1H866.1V605.05H915V660H866.1H833.1H783.1L816.1 605.05H783.1L701 440Z" stroke="#F2727F" stroke-width="6.875" stroke-miterlimit="10" stroke-linecap="round" stroke-linejoin="round"/>
<path d="M701 440H536.09H453.09V418.04H420.09L371 440V385H420.09H453.09H503.09V418.04H536.09L701 440Z" stroke="#ED7D31" stroke-width="6.875" stroke-miterlimit="10" stroke-linecap="round" stroke-linejoin="round"/>
<path d="M701.1 440L734.1 275.04V264.03H701.1L668.1 242.03L618 264.03V231.03L668.1 220L701.1 231.03L734.1 242.03L783 220V242.03V275.04L701.1 440Z" stroke="#78FFDB" stroke-width="6.875" stroke-miterlimit="10" stroke-linecap="round" stroke-linejoin="round"/>
<path d="M701 440L585.1 605.05V638.05H618.1V660H569.1L536.09 638.05V660H503.09H453L470.09 638.05L453 605.05H503.09H536.09L701 440Z" stroke="#8360C3" stroke-width="6.875" stroke-miterlimit="10" stroke-linecap="round" stroke-linejoin="round"/>
</g>
</g>
<defs>
<clipPath id="clip0_622_2">
<rect width="1650" height="990" fill="white"/>
</clipPath>
</defs>
</svg>
