<svg width="1653" height="986" xmlns="http://www.w3.org/2000/svg" xmlns:xlink="http://www.w3.org/1999/xlink" xml:space="preserve" overflow="hidden"><defs><clipPath id="clip0"><rect x="2371" y="793" width="1653" height="986"/></clipPath></defs><g clip-path="url(#clip0)" transform="translate(-2371 -793)"><g>
<path d="M3032.6 1231.5 2916.6 1395.55 3164.6 1340.54 3197.6 1340.54 3247.5 1395.55 3164.6 1450.5 2784.5 1395.55 3032.6 1231.5" stroke="#F2727F" stroke-width="6.875" stroke-linecap="round" stroke-linejoin="round" stroke-miterlimit="10" fill="none"/></g><g>
<path d="M3032.5 1231.5 3362.61 902.53 3395.61 902.53 3445.61 880.5 3610.5 1176.54 3528.62 1143.54 3494.61 1121.54 3445.61 1121.54 3412.61 1143.54 3032.5 1231.5" stroke="#FFC000" stroke-width="6.875" stroke-linecap="round" stroke-linejoin="round" stroke-miterlimit="10" fill="none"/></g><g>
<path d="M3032.6 1231.5 2734.59 957.532 2668.59 957.532 2619.5 957.532 2619.5 902.53 2701.59 902.53 2701.59 847.5 2734.59 847.5 2784.59 847.5 3362.5 1121.54 3032.6 1231.5" stroke="#C31432" stroke-width="6.875" stroke-linecap="round" stroke-linejoin="round" stroke-miterlimit="10" fill="none"/></g><g>
<path d="M3032.5 1231.5 3775.62 1395.55 3825.63 1395.55 3858.63 1395.55 3941.5 1395.55 3941.5 1450.55 3891.63 1450.55 3825.63 1450.55 3808.62 1450.55 3775.62 1504.5 3032.5 1231.5" stroke="#70AD47" stroke-width="6.875" stroke-linecap="round" stroke-linejoin="round" stroke-miterlimit="10" fill="none"/></g><g>
<path d="M3032.6 1231.5 3032.6 1614.55 3065.6 1614.55 3065.6 1668.55 3098.6 1723.5 3247.5 1450.55 3197.6 1450.55 2834.59 1450.55 2784.5 1450.55 2800.59 1428.55 3032.6 1231.5" stroke="#5B9BD5" stroke-width="6.875" stroke-linecap="round" stroke-linejoin="round" stroke-miterlimit="10" fill="none"/></g><g>
<path d="M3032.5 1231.5 2536.58 1340.54 2503.58 1340.54 2536.58 1395.5 2453.58 1395.5 2404.58 1340.54 2371.5 1340.54 2371.5 1285.54 2453.58 1285.54 2503.58 1285.54 3032.5 1231.5" stroke="#FF4B2B" stroke-width="6.875" stroke-linecap="round" stroke-linejoin="round" stroke-miterlimit="10" fill="none"/></g><g>
<path d="M3032.6 1231.54 3329.5 957.5 2949.5 1428.55 3197.6 1395.55 3032.6 1723.5 2999.6 1723.5 2949.5 1723.5 3114.6 1450.55 3147.6 1395.55 3114.6 1395.55 3032.6 1231.54" stroke="#FFFDE4" stroke-width="6.875" stroke-linecap="round" stroke-linejoin="round" stroke-miterlimit="10" fill="none"/></g><g>
<path d="M3032.6 1231.54 2867.59 1231.54 2916.6 1428.55 2949.6 1450.55 2900.6 1450.55 2867.59 1428.55 2867.59 1450.55 2999.6 1614.5 2834.5 1209.54 3115.5 1066.5 2867.59 1395.55 3032.6 1231.54" stroke="#8360C3" stroke-width="6.875" stroke-linecap="round" stroke-linejoin="round" stroke-miterlimit="10" fill="none"/></g><g>
<path d="M3032.6 1231.5 3362.61 1176.54 3445.61 1176.54 3461.61 1176.54 3561.5 1176.54 3478.61 847.5 3445.61 847.5 3362.61 847.5 3280.61 847.5 3280.61 902.53 2867.5 1209.54 3032.6 1231.5" stroke="#6BE585" stroke-width="6.875" stroke-linecap="round" stroke-linejoin="round" stroke-miterlimit="10" fill="none"/></g><g>
<path d="M3032.6 1231.5 3065.6 1066.54 3065.6 1055.53 3032.6 1055.53 2999.6 1033.53 2949.5 1055.53 2949.5 1022.53 2999.6 1012.5 3032.6 1022.53 3065.6 1033.53 3115.5 1012.5 3032.6 1231.5" stroke="#78FFDB" stroke-width="6.875" stroke-linecap="round" stroke-linejoin="round" stroke-miterlimit="10" fill="none"/></g><g>
<path d="M3032.6 1231.54 3148.5 1340.54 2784.59 1231.54 2784.59 1209.54 2751.59 1209.54 2701.5 1231.54 2701.5 1176.54 2751.59 1176.54 2784.59 1176.54 2834.59 1176.54 3114.6 1033.5 2834.59 1395.5 3032.6 1231.54" stroke="#ED7D31" stroke-width="6.875" stroke-linecap="round" stroke-linejoin="round" stroke-miterlimit="10" fill="none"/></g></g></svg>