<svg width="1652" height="994" xmlns="http://www.w3.org/2000/svg" xmlns:xlink="http://www.w3.org/1999/xlink" xml:space="preserve" overflow="hidden"><defs><clipPath id="clip0"><rect x="2370" y="800" width="1652" height="994"/></clipPath></defs><g clip-path="url(#clip0)" transform="translate(-2370 -800)"><g>
<path d="M3031.5 1241.5 3146.6 1352.54 3163.6 1352.54 3196.5 1352.54 3196.5 1407.5 3031.5 1241.5" stroke="#636363" stroke-width="6.875" stroke-linecap="round" stroke-linejoin="round" stroke-miterlimit="10" fill="none"/></g><g>
<path d="M3031.5 1241.5 2733.59 965.532 2667.59 965.532 2618.5 965.532 2618.5 910.53 2700.59 910.53 2700.59 854.5 2733.59 854.5 2783.59 854.5 3031.5 1241.5" stroke="#C31432" stroke-width="6.875" stroke-linecap="round" stroke-linejoin="round" stroke-miterlimit="10" fill="none"/></g><g>
<path d="M3031.5 1241.5 3031.5 1628.55 3064.6 1628.55 3064.6 1683.5 3246.5 1407.55 3246.5 1462.55 3196.6 1462.55 3163.6 1462.55 3113.6 1462.55 3146.6 1407.55 3031.5 1241.5" stroke="#5B9BD5" stroke-width="6.875" stroke-linecap="round" stroke-linejoin="round" stroke-miterlimit="10" fill="none"/></g><g>
<path d="M3031.5 1241.5 2535.58 1352.54 2502.58 1352.54 2535.58 1407.5 2453.58 1407.5 2403.58 1352.54 2370.5 1352.54 2370.5 1296.54 2453.58 1296.54 2502.58 1296.54 3031.5 1241.5" stroke="#FF4B2B" stroke-width="6.875" stroke-linecap="round" stroke-linejoin="round" stroke-miterlimit="10" fill="none"/></g><g>
<path d="M3031.5 1241.5 3774.62 1407.55 3824.63 1407.55 3857.63 1407.55 3939.5 1407.55 3939.5 1462.55 3890.63 1462.55 3824.63 1462.55 3807.62 1462.55 3774.62 1517.5 3031.5 1241.5" stroke="#70AD47" stroke-width="6.875" stroke-linecap="round" stroke-linejoin="round" stroke-miterlimit="10" fill="none"/></g><g>
<path d="M3031.5 1241.5 3361.61 910.53 3394.61 910.53 3444.61 887.529 3477.5 854.5 3444.61 854.5 3361.61 854.5 3279.61 854.5 3279.61 910.53 3113.6 1042.53 3113.6 1075.54 3031.5 1241.5" stroke="#6bE585" stroke-width="6.875" stroke-linecap="round" stroke-linejoin="round" stroke-miterlimit="10" fill="none"/></g><g>
<path d="M3031.6 1241.54 3328.5 965.5 3097.6 1738.5 3031.6 1738.5 2998.6 1738.5 2948.6 1738.5 2998.6 1628.55 2833.59 1219.54 2783.5 1407.55 2833.59 1407.55 2866.59 1407.55 3031.6 1241.54" stroke="#FFFDE4" stroke-width="6.875" stroke-linecap="round" stroke-linejoin="round" stroke-miterlimit="10" fill="none"/></g><g>
<path d="M3031.5 1241.5 3361.61 1186.54 3444.61 1186.54 3460.61 1186.54 3559.62 1186.54 3609.5 1186.54 3526.62 1153.54 3493.61 1131.5 3444.61 1131.5 3411.61 1153.54 3361.61 1131.5 3031.5 1241.5" stroke="#FFC000" stroke-width="6.875" stroke-linecap="round" stroke-linejoin="round" stroke-miterlimit="10" fill="none"/></g><g>
<path d="M3031.5 1241.5 2866.59 1241.5 2783.59 1241.5 2783.59 1219.54 2750.59 1219.54 2700.5 1241.5 2700.5 1186.5 2750.59 1186.5 2783.59 1186.5 2833.59 1186.5 2866.59 1219.54 3031.5 1241.5" stroke="#ED7D31" stroke-width="6.875" stroke-linecap="round" stroke-linejoin="round" stroke-miterlimit="10" fill="none"/></g><g>
<path d="M3031.6 1241.5 3064.6 1075.54 3064.6 1064.54 3031.6 1064.54 2998.6 1042.53 2948.5 1064.54 2948.5 1031.53 2998.6 1020.5 3031.6 1031.53 3064.6 1042.53 3113.5 1020.5 3031.6 1241.5" stroke="#78FFDB" stroke-width="6.875" stroke-linecap="round" stroke-linejoin="round" stroke-miterlimit="10" fill="none"/></g><g>
<path d="M3031.6 1241.5 2915.6 1407.55 2915.6 1440.55 2948.6 1440.55 2948.6 1462.5 2899.6 1462.5 2866.59 1440.55 2866.59 1462.5 2833.59 1462.5 2783.5 1462.5 2800.59 1440.55 3113.5 1407.55 3031.6 1241.5" stroke="#8360C3" stroke-width="6.875" stroke-linecap="round" stroke-linejoin="round" stroke-miterlimit="10" fill="none"/></g></g></svg>