<svg width="1650" height="990" xmlns="http://www.w3.org/2000/svg" xmlns:xlink="http://www.w3.org/1999/xlink" xml:space="preserve" overflow="hidden"><defs><clipPath id="clip0"><rect x="2368" y="796" width="1650" height="990"/></clipPath></defs><g clip-path="url(#clip0)" transform="translate(-2368 -796)"><g>
<path d="M3028.6 1236.5 3028.6 1621.55 3061.6 1621.55 3061.6 1676.56 3094.5 1731.5 3028.6 1731.5 2995.5 1731.5 3028.6 1236.5" stroke="#5B9BD5" stroke-width="6.875" stroke-linecap="round" stroke-linejoin="round" stroke-miterlimit="10" fill="none"/></g><g>
<path d="M3028.5 1236.5 2912.6 1401.55 2912.6 1434.55 2896.6 1456.5 2863.59 1434.55 2863.59 1456.5 2830.5 1456.5 3028.5 1236.5" stroke="#8360C3" stroke-width="6.875" stroke-linecap="round" stroke-linejoin="round" stroke-miterlimit="10" fill="none"/></g><g>
<path d="M3028.5 1236.5 2945.6 1434.55 2945.6 1456.55 2945.6 1731.5 2995.6 1621.55 2780.5 1456.55 2797.59 1434.55 2780.5 1401.55 3028.5 1236.5" stroke="#FFFDE4" stroke-width="6.875" stroke-linecap="round" stroke-linejoin="round" stroke-miterlimit="10" fill="none"/></g><g>
<path d="M3028.5 1236.5 3325.61 961.532 3358.61 906.53 3391.61 906.53 3440.61 884.529 3473.5 851.5 3440.61 851.5 3358.61 851.5 3275.61 851.5 3275.61 906.53 3028.5 1236.5" stroke="#6bE585" stroke-width="6.875" stroke-linecap="round" stroke-linejoin="round" stroke-miterlimit="10" fill="none"/></g><g>
<path d="M3028.5 1236.5 3358.61 1181.54 3440.61 1181.54 3457.61 1181.54 3556.62 1181.54 3605.5 1181.54 3523.62 1148.54 3490.61 1126.5 3440.61 1126.5 3407.61 1148.54 3028.5 1236.5" stroke="#FFC000" stroke-width="6.875" stroke-linecap="round" stroke-linejoin="round" stroke-miterlimit="10" fill="none"/></g><g>
<path d="M3028.5 1236.5 2533.58 1346.54 2500.58 1346.54 2533.58 1401.5 2450.58 1401.5 2401.58 1346.54 2368.5 1346.54 2368.5 1291.54 2450.58 1291.54 2500.58 1291.54 3028.5 1236.5" stroke="#FF4B2B" stroke-width="6.875" stroke-linecap="round" stroke-linejoin="round" stroke-miterlimit="10" fill="none"/></g><g>
<path d="M3028.6 1236.5 2731.59 961.532 2665.59 961.532 2615.5 961.532 2615.5 906.53 2698.59 906.53 2698.59 851.5 2731.59 851.5 2780.59 851.5 3358.5 1126.54 3028.6 1236.5" stroke="#C31432" stroke-width="6.875" stroke-linecap="round" stroke-linejoin="round" stroke-miterlimit="10" fill="none"/></g><g>
<path d="M3028.5 1236.5 3143.6 1346.54 3160.6 1346.54 3193.6 1346.54 3193.6 1401.55 3242.5 1401.55 3242.5 1456.5 3193.6 1456.5 3160.6 1456.5 3110.6 1456.5 3143.6 1401.55 3028.5 1236.5" stroke="#636363" stroke-width="6.875" stroke-linecap="round" stroke-linejoin="round" stroke-miterlimit="10" fill="none"/></g><g>
<path d="M3028.5 1236.5 2863.59 1236.5 2780.59 1236.5 2780.59 1214.54 2747.59 1214.54 2698.5 1236.5 2698.5 1181.5 2747.59 1181.5 2780.59 1181.5 2830.59 1181.5 2830.59 1214.54 2863.59 1214.54 3028.5 1236.5" stroke="#ED7D31" stroke-width="6.875" stroke-linecap="round" stroke-linejoin="round" stroke-miterlimit="10" fill="none"/></g><g>
<path d="M3028.6 1236.5 3770.62 1401.55 3820.63 1401.55 3853.63 1401.55 3935.5 1401.55 3935.5 1456.55 3886.63 1456.55 3820.63 1456.55 3803.62 1456.55 3770.62 1511.5 3110.6 1401.55 2830.5 1401.55 2863.59 1401.55 3028.6 1236.5" stroke="#70AD47" stroke-width="6.875" stroke-linecap="round" stroke-linejoin="round" stroke-miterlimit="10" fill="none"/></g><g>
<path d="M3028.6 1236.5 3061.6 1071.54 3061.6 1060.53 3028.6 1060.53 2995.6 1038.53 2945.5 1060.53 2945.5 1027.53 2995.6 1016.5 3028.6 1027.53 3061.6 1038.53 3110.5 1016.5 3110.5 1038.53 3110.5 1071.54 3028.6 1236.5" stroke="#78FFDB" stroke-width="6.875" stroke-linecap="round" stroke-linejoin="round" stroke-miterlimit="10" fill="none"/></g></g></svg>