<?xml version="1.0" standalone="no"?>
<!DOCTYPE svg PUBLIC "-//W3C//DTD SVG 20010904//EN"
 "http://www.w3.org/TR/2001/REC-SVG-20010904/DTD/svg10.dtd">
<svg width="512" height="512" viewBox="0 0 512 512" fill="none" xmlns="http://www.w3.org/2000/svg">
<path d="M243.667 2.06667C232.2 5.93334 223.267 13.2667 217.933 23.5333L214.333 30.3333L213.933 121.933L213.533 213.533L121.933 213.933L30.3333 214.333L23.5333 217.933C15.5333 222.2 7.79999 230.333 3.79999 238.867C-0.200012 247.533 -0.200012 265.133 3.79999 273.8C7.79999 282.333 15.5333 290.467 23.5333 294.733L30.3333 298.333L121.933 298.733L213.533 299.133L213.933 390.733L214.333 482.333L217.933 489.133C222.2 497.133 230.333 504.867 238.867 508.867C247.533 512.867 265.133 512.867 273.8 508.867C282.333 504.867 290.467 497.133 294.733 489.133L298.333 482.333L298.733 390.733L299.133 299.133L390.733 298.733L482.333 298.333L489.133 294.733C497.133 290.467 504.867 282.333 508.867 273.8C512.867 265.133 512.867 247.533 508.867 238.867C504.867 230.333 497.133 222.2 489.133 217.933L482.333 214.333L390.733 213.933L299.133 213.533L298.733 121.933L298.333 30.3333L294.733 23.5333C290.467 15.4 282.2 7.66667 273.8 3.93334C266.2 0.600006 251.133 -0.333327 243.667 2.06667Z" fill="white"/>
</svg>
