<svg width="1843" height="1843" xmlns="http://www.w3.org/2000/svg" xmlns:xlink="http://www.w3.org/1999/xlink" overflow="hidden"><defs><clipPath id="clip0"><rect x="3292" y="1140" width="1843" height="1843"/></clipPath><clipPath id="clip1"><rect x="3444" y="1388" width="1549" height="1357"/></clipPath><clipPath id="clip2"><rect x="3444" y="1388" width="1549" height="1357"/></clipPath><clipPath id="clip3"><rect x="3444" y="1388" width="1549" height="1357"/></clipPath></defs><g clip-path="url(#clip0)" transform="translate(-3292 -1140)"><rect x="3293" y="1141" width="1840" height="1840" fill="#FFFFFF"/><g clip-path="url(#clip1)"><path d="M4062.13 1990 4171.14 2141.07 4217.14 2141.07 4217.14 2216.07 4264 2216.07 4264 2291.08 4217.14 2291.08 4186.14 2291.08 4171.14 2216.07 4140.14 2216.07 4093.13 2291.08 4124.14 2366.08 4186.14 2441.08 4093.13 2517.08 4093.13 2592.08 4124.14 2667 4062.13 2667 4032.13 2667 3985.13 2667 4032.13 2592.08 4032.13 2517.08 4001.13 2472.08 3939.13 2441.08 3970.13 2366.08 3908.13 2291.08 3831 2291.08 3846.13 2261.07 3831 2216.07 3908.13 2216.07 3954.13 2216.07 3954.13 2261.07 3985.13 2261.07 4001.13 2141.07 4062.13 1990" stroke="#4472C4" stroke-width="18.3333" stroke-linecap="round" stroke-linejoin="round" stroke-miterlimit="10" fill="none"/></g><g clip-path="url(#clip2)"><path d="M4063 1990.07 4093.13 1870.06 4093.13 1765.06 4140.14 1765.06 4140.14 1689.06 4248.14 1614.05 4294.14 1539.05 4294.14 1464 4372.14 1464 4480.15 1464 4449.15 1509.05 4403.14 1539.05 4341.14 1614.05 4341.14 1689.06 4403.14 1704.06 4372.14 1749.06 4310.14 1780.06 4372.14 1840.06 4449.15 1840.06 4526.15 1870.06 4465.15 1915.06 4557.15 1915.06 4604.15 1915.06 4774.16 2050.07 4836.16 2216.07 4913 2216.07 4913 2291.08 4867.16 2291.08 4758.16 2366 4789.16 2291.08 4758.16 2216.07 4650.15 2141.07 4557.15 2065.07 4403.14 2141.07 4434.15 2050.07 4372.14 1915.06 4063 1990.07" stroke="#ED7D31" stroke-width="18.3333" stroke-linecap="round" stroke-linejoin="round" stroke-miterlimit="10" fill="none"/></g><g clip-path="url(#clip3)"><path d="M4063 1990.07 3908.13 1990.07 3877.13 1960.06 3831.13 1990.07 3800.12 1960.06 3753.12 1915.06 3753.12 1990.07 3691.12 2110.07 3599.12 2141.07 3568.12 2141.07 3599.12 2216 3521.12 2216 3475.11 2141.07 3444 2141.07 3444 2065.07 3521.12 2065.07 3568.12 2065.07 3506.11 1915.06 3568.12 1810.06 3660.12 1749.06 3676.12 1614.05 3676.12 1539.05 3753.12 1464 3784.12 1464 3831.13 1464 3753.12 1539.05 3722.12 1614.05 3784.12 1614.05 3784.12 1749.06 3877.13 1689.06 3985.13 1704.06 3985.13 1749.06 3970.13 1840.06 3908.13 1900.06 4063 1990.07" stroke="#00B050" stroke-width="18.3333" stroke-linecap="round" stroke-linejoin="round" stroke-miterlimit="10" fill="none"/></g><rect x="3293.5" y="1141.5" width="1840" height="1840" stroke="#D9D9D9" stroke-width="3.4375" stroke-linejoin="round" stroke-miterlimit="10" fill="none"/></g></svg>