<?xml version="1.0" standalone="no"?>
<!DOCTYPE svg PUBLIC "-//W3C//DTD SVG 20010904//EN"
 "http://www.w3.org/TR/2001/REC-SVG-20010904/DTD/svg10.dtd">
<svg version="1.0" xmlns="http://www.w3.org/2000/svg"
 width="1280.000000pt" height="1193.000000pt" viewBox="0 0 1280.000000 1193.000000"
 preserveAspectRatio="xMidYMid meet" fill="#FFFFFF">
<g transform="translate(0.000000,1193.000000) scale(0.100000,-0.100000)"
fill="#000000" stroke="none">
<path d="M6258 11910 c-130 -27 -180 -46 -319 -117 -222 -113 -358 -243 -450
-428 -58 -117 -86 -221 -98 -361 -14 -157 -2 -208 112 -499 179 -457 252 -814
264 -1290 15 -622 -96 -1478 -328 -2524 -51 -229 -54 -241 -68 -241 -9 0 -152
308 -276 595 -451 1044 -698 1884 -721 2460 -6 133 -4 159 51 535 55 380 57
399 46 486 -14 120 -42 206 -109 339 -66 132 -113 203 -188 284 -167 181 -379
274 -659 288 -262 13 -503 -60 -714 -217 -232 -173 -353 -390 -383 -692 -22
-212 12 -420 94 -587 45 -90 70 -119 298 -331 129 -120 203 -207 253 -300 79
-144 140 -391 172 -697 35 -328 28 -1012 -15 -1583 -18 -237 -51 -535 -59
-543 -13 -13 -267 255 -462 488 -369 440 -630 909 -704 1265 -9 41 -19 120
-22 175 -5 99 -2 123 78 737 22 162 -12 321 -108 512 -91 183 -182 298 -306
392 -166 124 -345 178 -592 178 -121 0 -166 -4 -232 -22 -191 -50 -378 -155
-520 -293 -160 -154 -229 -297 -282 -585 -6 -33 -11 -84 -11 -113 0 -75 36
-272 66 -366 97 -298 319 -533 684 -725 l105 -55 7 -105 c29 -441 177 -1188
537 -2700 65 -278 124 -538 130 -578 15 -96 41 -169 90 -251 23 -38 230 -284
486 -576 246 -280 466 -535 490 -565 167 -216 279 -457 291 -627 10 -136 -32
-267 -206 -638 -127 -272 -167 -371 -213 -531 -53 -183 -92 -473 -76 -562 5
-26 8 -97 7 -158 -2 -104 -1 -113 25 -156 78 -134 304 -250 652 -333 596 -143
1472 -235 2525 -265 201 -5 469 -15 595 -21 325 -16 747 -8 1535 31 1352 66
2190 217 2526 455 89 64 144 143 143 207 -1 114 0 162 6 238 9 103 -9 365 -31
463 -20 86 -21 88 -168 394 -130 270 -228 501 -277 649 -27 84 -32 114 -32
194 0 80 5 110 32 190 90 266 298 555 696 970 411 429 610 712 650 925 8 44
24 112 35 150 22 78 167 673 229 946 229 999 343 1618 398 2174 l8 80 105 55
c365 192 587 427 684 725 33 102 66 293 66 382 0 56 -10 100 -59 249 -68 210
-79 233 -159 340 -113 151 -262 272 -411 333 -198 82 -449 102 -646 51 -218
-56 -482 -236 -611 -416 -127 -177 -192 -428 -166 -637 7 -51 28 -216 48 -367
43 -327 42 -410 -5 -590 -124 -478 -444 -959 -1115 -1674 -28 -30 -50 -46 -55
-40 -16 17 -74 806 -92 1259 -24 600 38 1054 195 1429 88 209 185 354 347 518
56 56 119 129 141 161 152 224 198 554 117 832 -30 102 -119 278 -187 370
-198 270 -496 401 -867 382 -303 -16 -640 -208 -800 -455 -83 -130 -127 -261
-146 -441 -11 -104 -11 -112 46 -511 53 -379 57 -413 51 -535 -25 -563 -254
-1361 -666 -2325 -146 -343 -320 -720 -331 -720 -14 0 -17 12 -59 201 -305
1370 -412 2304 -330 2869 46 313 156 736 260 995 56 138 100 274 111 344 11
64 10 73 -40 270 -30 119 -64 228 -82 264 -120 238 -301 401 -529 475 -170 56
-364 72 -502 42z m294 -521 c203 -43 308 -195 308 -444 0 -298 -132 -456 -400
-481 -200 -18 -375 56 -455 191 -60 104 -82 300 -49 445 27 118 109 220 211
261 92 38 276 51 385 28z m-2910 -568 c156 -54 232 -160 258 -354 27 -201 -33
-391 -151 -477 -85 -61 -139 -75 -299 -74 -160 0 -208 12 -304 76 -126 83
-190 296 -153 504 45 245 205 361 487 350 71 -3 124 -11 162 -25z m5831 14
c141 -30 231 -91 284 -192 101 -193 70 -488 -63 -615 -88 -83 -221 -124 -383
-116 -86 4 -106 9 -172 41 -131 63 -202 143 -241 271 -18 59 -20 85 -15 182 5
103 8 120 40 186 20 40 52 92 71 114 103 120 287 170 479 129z m-8362 -1175
c30 -6 83 -24 118 -41 175 -81 254 -213 254 -419 1 -249 -100 -404 -297 -456
-68 -18 -237 -18 -309 1 -155 40 -251 136 -291 287 -46 176 -22 360 60 480 79
114 290 181 465 148z m10747 0 c89 -15 164 -45 221 -90 180 -143 186 -553 11
-726 -168 -166 -518 -148 -684 36 -73 81 -106 184 -106 330 1 118 9 156 52
227 107 180 286 258 506 223z m-7904 -1296 c278 -786 523 -1344 778 -1764 110
-181 190 -287 420 -555 253 -294 304 -352 311 -345 22 22 287 461 331 547 223
446 408 1094 560 1966 24 136 47 251 50 254 3 4 9 4 12 0 3 -3 43 -173 89
-379 211 -941 312 -1329 429 -1639 20 -53 392 -728 412 -749 3 -3 20 13 37 35
18 22 67 78 111 125 234 253 543 658 648 850 75 137 261 517 342 698 144 321
331 798 416 1057 18 55 39 107 47 115 17 17 16 -28 -8 -400 -35 -553 59 -1476
261 -2549 22 -118 40 -216 40 -218 0 -15 223 128 380 245 475 353 967 865
1434 1495 83 111 106 134 106 104 0 -27 -111 -628 -164 -892 -146 -721 -285
-1198 -418 -1436 -45 -80 -112 -157 -143 -165 -18 -4 -55 11 -142 59 -745 409
-1732 670 -2883 761 -606 49 -1393 49 -1990 1 -1170 -94 -2136 -350 -2914
-773 -119 -65 -128 -64 -208 18 -85 87 -137 200 -221 485 -85 284 -225 890
-362 1565 -82 403 -80 390 -67 390 6 0 59 -64 118 -142 533 -709 1121 -1280
1692 -1647 63 -40 115 -71 117 -69 1 1 21 113 43 248 161 963 239 1610 263
2185 10 249 7 386 -18 680 -4 52 -2 67 6 59 6 -5 44 -104 85 -220z m2791
-3414 c709 -35 1486 -118 1920 -205 586 -118 919 -284 975 -485 15 -54 12
-152 -5 -177 -8 -11 -36 -29 -62 -38 -96 -34 -267 -30 -1243 29 -937 58 -1394
75 -1952 76 -313 0 -487 -8 -2333 -106 -656 -35 -813 -28 -860 39 -22 31 -20
151 4 202 61 131 231 238 549 345 349 117 775 205 1267 259 515 57 1271 84
1740 61z m285 -1440 c733 -21 1396 -65 2015 -136 121 -13 248 -27 283 -31 34
-3 65 -10 68 -14 3 -5 -14 -32 -36 -61 -120 -152 -165 -329 -165 -658 0 -228
12 -296 64 -382 18 -29 25 -48 18 -51 -6 -2 -45 3 -87 10 -500 88 -1201 149
-2005 174 -409 13 -1556 6 -1890 -10 -676 -34 -1260 -92 -1670 -165 -44 -8
-83 -11 -87 -8 -4 4 6 27 22 50 49 74 65 169 64 392 -1 322 -52 523 -166 646
-22 24 -38 50 -35 57 5 13 111 28 482 68 965 104 2115 148 3125 119z m-55
-1775 c913 -10 1619 -74 2050 -185 139 -36 198 -62 278 -125 131 -104 160
-231 75 -323 -106 -112 -412 -202 -888 -261 -563 -70 -1257 -96 -2335 -88
-723 6 -923 12 -1350 42 -947 67 -1415 209 -1415 428 0 213 278 360 790 417
484 54 1857 115 2295 103 44 -2 269 -5 500 -8z"/>
</g>
</svg>
