<?xml version="1.0" standalone="no"?>
<!DOCTYPE svg PUBLIC "-//W3C//DTD SVG 20010904//EN"
 "http://www.w3.org/TR/2001/REC-SVG-20010904/DTD/svg10.dtd">
<svg width="718" height="718" viewBox="0 0 718 718" fill="none" xmlns="http://www.w3.org/2000/svg">
<circle cx="359" cy="359" r="359" fill="#D9D9D9"/>
<path d="M285.527 113.351L214.708 155.559L214.283 198.334L214 241.108L217.116 239.125C218.957 237.992 244.877 222.554 274.904 204.708C304.931 187.003 335.667 168.732 343.315 164.199C350.964 159.525 357.762 155.842 358.47 155.842C359.179 155.842 391.472 174.68 430.281 197.767C469.09 220.854 501.241 239.975 501.949 240.4C502.516 240.683 502.941 221.846 502.941 198.475V155.842L467.956 135.163C448.552 123.691 416.4 104.57 396.429 92.5304C376.317 80.6329 359.179 70.8598 358.187 71.0015C357.196 71.0015 324.477 89.9809 285.527 113.351Z" fill="#A532F0"/>
<path d="M214 422.971C214 526.933 214.142 532.032 216.974 545.771C227.739 598.744 265.131 634.011 322.919 645.484C341.474 649.167 377.308 648.742 396.713 644.634C422.066 639.252 441.753 629.762 460.733 614.041C478.154 599.593 492.176 576.365 498.975 551.012C502.091 539.114 502.091 537.839 502.516 426.654L503.083 314.477H465.549H428.015L427.59 417.447L427.165 520.56L423.907 529.766C419.375 542.23 414.984 549.454 407.194 557.244C391.614 572.824 369.518 580.047 347.848 576.507C321.786 572.399 301.532 555.119 293.034 529.908C289.776 520.56 289.776 519.993 289.351 417.447L288.926 314.477H251.534H214V422.971Z" fill="black"/>
</svg>

